<?xml version="1.0" encoding="UTF-8" standalone="no"?>
<svg
   xmlns:dc="http://purl.org/dc/elements/1.1/"
   xmlns:cc="http://creativecommons.org/ns#"
   xmlns:rdf="http://www.w3.org/1999/02/22-rdf-syntax-ns#"
   xmlns:svg="http://www.w3.org/2000/svg"
   xmlns="http://www.w3.org/2000/svg"
   xmlns:sodipodi="http://sodipodi.sourceforge.net/DTD/sodipodi-0.dtd"
   xmlns:inkscape="http://www.inkscape.org/namespaces/inkscape"
   width="128"
   height="128"
   id="svg4136"
   version="1.1"
   inkscape:version="0.91 r13725"
   sodipodi:docname="logo-core-white2.svg">
  <defs
     id="defs4156" />
  <sodipodi:namedview
     pagecolor="#ffffff"
     bordercolor="#666666"
     borderopacity="1"
     objecttolerance="10"
     gridtolerance="10"
     guidetolerance="10"
     inkscape:pageopacity="0"
     inkscape:pageshadow="2"
     inkscape:window-width="1440"
     inkscape:window-height="837"
     id="namedview4154"
     showgrid="false"
     inkscape:zoom="4.84375"
     inkscape:cx="64"
     inkscape:cy="64"
     inkscape:window-x="-8"
     inkscape:window-y="-8"
     inkscape:window-maximized="1"
     inkscape:current-layer="g4144" />
  <metadata
     id="metadata4245">image/svg+xml<rdf:RDF>
  <cc:Work
     rdf:about="">
    <dc:format>image/svg+xml</dc:format>
    <dc:type
       rdf:resource="http://purl.org/dc/dcmitype/StillImage" />
    <dc:title></dc:title>
  </cc:Work>
</rdf:RDF>
</metadata>
  <g
     id="g4139">
    <title
       id="title4141">background</title>
    <rect
       fill="none"
       id="canvas_background"
       height="130"
       width="130"
       y="-1"
       x="-1" />
  </g>
  <g
     id="g4144">
    <title
       id="title4146">Layer 1</title>
    <g
       id="g4137">
      <g
         id="g4141">
        <path
           fill="#ffffff"
           d="m116.072089,51.350505c3.872,5.533 1.785,-5.631 -8.809,-15.032c-4.676,-4.148 -9.403,-5.875 -17.325,-6.304c-4.166,-0.223 -8.346,0.742 -12.345,1.877c-4.925,1.399 -9.763,5 -13.997,7.865c-5.475,3.718 -10.321,8.593 -14.484,13.657c0,0 -12.055,17.338 -24.559,14.012c-6.559,-1.742 -6.627,-11.106 -5.982,-15.051c1.59,-9.739 6.437,-18.694 16.373,-24.625c-0.276,-0.899 -3.915,-0.587 -10.062,4.545c-3.511,2.932 -5.908,5.616 -8.826,10.731c-9.676,16.941 -2.9,36.054 14.16,35.992c0,0 12.24,2.2 27.905,-17.381c6.815,-8.52 15.287,-16.413 25.568,-20.524c5.04,-2.011 11.802,-3.423 17.079,-1.756c5.258,1.667 9.489,4.485 12.823,8.664c0.806,1.012 1.636,2.122 2.481,3.33z"
           id="path4143" />
        <path
           fill="#ffffff"
           d="m97.534089,20.084505c-9.229,-7.037 -20.754,-11.219 -33.257,-11.219c-13.834,0 -26.475,5.125 -36.13,13.568l-1.487,1.588c1.042,-0.768 2.155,-1.419 3.362,-1.91c3.116,-1.269 7.241,-2.89 10.441,-1.05c12.767,7.314 -11.047,20.982 -10.955,29.604c0.086,8.03 13.307,-2.446 15.603,-4.985c10.184,-11.25 24.299,-21.492 40.421,-21.457c2.857,0.002 5.688,0.272 8.511,0.546c1.818,0.184 5.679,-0.153 6.522,-2.249c-0.716,-0.872 -2.14,-1.753 -3.031,-2.436z"
           id="path4145" />
        <path
           fill="#ffffff"
           d="m11.926089,76.654505c-3.869,-5.535 -1.783,5.637 8.813,15.033c4.668,4.146 9.396,5.881 17.32,6.307c4.168,0.221 8.345,-0.745 12.346,-1.875c4.924,-1.402 9.763,-5.005 13.995,-7.87c5.478,-3.714 10.317,-8.593 14.483,-13.661c0,0 12.058,-17.333 24.562,-14.013c6.556,1.745 6.626,11.111 5.982,15.06c-1.591,9.734 -6.44,18.693 -16.374,24.624c0.277,0.893 3.909,0.588 10.061,-4.541c3.513,-2.937 5.909,-5.626 8.829,-10.735c9.671,-16.945 2.902,-36.059 -14.162,-35.996c0,0 -12.241,-2.198 -27.903,17.379c-6.82,8.524 -15.289,16.414 -25.573,20.524c-5.033,2.014 -11.799,3.43 -17.072,1.76c-5.26,-1.672 -9.495,-4.486 -12.826,-8.668c-0.804,-1.008 -1.635,-2.117 -2.481,-3.328z"
           id="path4147" />
        <path
           fill="#ffffff"
           d="m30.468089,107.918505c9.228,7.044 20.752,11.216 33.252,11.216c3.891,0 7.686,-0.401 11.346,-1.172c9.36,-1.972 17.847,-6.322 24.79,-12.394l1.48,-1.586c-1.039,0.766 -2.152,1.424 -3.36,1.907c-3.117,1.271 -7.236,2.891 -10.441,1.055c-12.768,-7.316 11.05,-20.987 10.954,-29.609c-0.085,-8.027 -13.306,2.452 -15.602,4.993c-10.188,11.245 -24.301,21.494 -40.422,21.454c-2.857,-0.005 -5.687,-0.272 -8.51,-0.55c-1.817,-0.181 -5.677,0.15 -6.519,2.244c0.715,0.875 2.137,1.761 3.032,2.442z"
           id="path4149" />
      </g>
    </g>
  </g>
</svg>
