<svg width="20" height="20" xmlns="http://www.w3.org/2000/svg" class="svg-inline--fa fa-ellipsis-h fa-w-16">

 <g>
  <title>background</title>
  <rect fill="none" id="canvas_background" height="22" width="22" y="-1" x="-1"/>
 </g>
 <g>
  <title>Layer 1</title>
  <g stroke="null" id="svg_6">
   <path id="svg_5" stroke-width="1px" d="m13.646971,9.544129l0,0.911743c0,0.188047 -0.153857,0.341904 -0.341904,0.341904l-2.507293,0l0,2.507293c0,0.188047 -0.153857,0.341904 -0.341904,0.341904l-0.911743,0c-0.188047,0 -0.341904,-0.153857 -0.341904,-0.341904l0,-2.507293l-2.507293,0c-0.188047,0 -0.341904,-0.153857 -0.341904,-0.341904l0,-0.911743c0,-0.188047 0.153857,-0.341904 0.341904,-0.341904l2.507293,0l0,-2.507293c0,-0.188047 0.153857,-0.341904 0.341904,-0.341904l0.911743,0c0.188047,0 0.341904,0.153857 0.341904,0.341904l0,2.507293l2.507293,0c0.188047,0 0.341904,0.153857 0.341904,0.341904zm3.419035,0.455871c0,3.903399 -3.162608,7.066006 -7.066006,7.066006s-7.066006,-3.162608 -7.066006,-7.066006s3.162608,-7.066006 7.066006,-7.066006s7.066006,3.162608 7.066006,7.066006zm-1.367614,0c0,-3.148362 -2.55003,-5.698392 -5.698392,-5.698392s-5.698392,2.55003 -5.698392,5.698392s2.55003,5.698392 5.698392,5.698392s5.698392,-2.55003 5.698392,-5.698392z" fill="#495057"/>
  </g>
 </g>
</svg>