<svg width="20" height="20" xmlns="http://www.w3.org/2000/svg" class="svg-inline--fa fa-ellipsis-h fa-w-16">

 <g>
  <title>background</title>
  <rect fill="none" id="canvas_background" height="22" width="22" y="-1" x="-1"/>
 </g>
 <g>
  <title>Layer 1</title>
  <path transform="rotate(90 10.000000953674316,10.000000000000002) " id="svg_1" stroke-width="1px" d="m12.57664,10c0,1.424309 -1.15233,2.576639 -2.576639,2.576639s-2.576639,-1.15233 -2.576639,-2.576639s1.15233,-2.576639 2.576639,-2.576639s2.576639,1.15233 2.576639,2.576639zm3.721812,-2.576639c-1.424309,0 -2.576639,1.15233 -2.576639,2.576639s1.15233,2.576639 2.576639,2.576639s2.576639,-1.15233 2.576639,-2.576639s-1.15233,-2.576639 -2.576639,-2.576639zm-12.596903,0c-1.424309,0 -2.576639,1.15233 -2.576639,2.576639s1.15233,2.576639 2.576639,2.576639s2.576639,-1.15233 2.576639,-2.576639s-1.15233,-2.576639 -2.576639,-2.576639z" fill="#495057"/>
 </g>
</svg>